<svg width="16.221924" height="16.221069" viewBox="0 0 16.2219 16.2211" fill="none" xmlns="http://www.w3.org/2000/svg" xmlns:xlink="http://www.w3.org/1999/xlink">
	<desc>
			Created with Pixso.
	</desc>
	<defs/>
	<path id="phone-icon" d="M16.22 12.09L16.22 15.28C16.22 15.5 16.13 15.72 15.97 15.89C15.82 16.06 15.61 16.16 15.38 16.17C14.98 16.2 14.66 16.22 14.41 16.22C6.45 16.22 0 9.76 0 1.8C0 1.55 0.01 1.23 0.04 0.83C0.05 0.61 0.15 0.39 0.32 0.24C0.49 0.08 0.71 -0.01 0.94 0L4.12 0C4.23 -0.01 4.34 0.04 4.42 0.11C4.51 0.19 4.56 0.29 4.57 0.4C4.59 0.61 4.61 0.77 4.63 0.9C4.81 2.15 5.17 3.36 5.72 4.5C5.8 4.68 5.75 4.9 5.58 5.01L3.64 6.4C4.83 9.17 7.04 11.38 9.81 12.57L11.2 10.63C11.25 10.55 11.34 10.49 11.43 10.47C11.52 10.45 11.62 10.45 11.71 10.5C12.85 11.04 14.07 11.4 15.32 11.58C15.44 11.6 15.61 11.62 15.81 11.64C15.92 11.65 16.03 11.7 16.1 11.79C16.18 11.87 16.22 11.98 16.22 12.09L16.22 12.09Z" fill="#607B96" fill-opacity="1.000000" fill-rule="nonzero"/>
</svg>
