<svg width="24.000000" height="24.000000" viewBox="0 0 24 24" fill="none" xmlns="http://www.w3.org/2000/svg" xmlns:xlink="http://www.w3.org/1999/xlink">
	<desc>
			Created with Pixso.
	</desc>
	<defs>
		<clipPath id="clip3_618">
			<rect id="Frame" rx="-0.500000" width="23.000000" height="23.000000" transform="translate(0.500000 0.500000)" fill="white" fill-opacity="0"/>
		</clipPath>
	</defs>
	<rect id="Frame" rx="-0.500000" width="23.000000" height="23.000000" transform="translate(0.500000 0.500000)" fill="#607B96" fill-opacity="0"/>
	<g clip-path="url(#clip3_618)">
		<path id="Vector" d="M12 2C6.47 2 2 6.47 2 12C1.99 14.09 2.65 16.14 3.88 17.84C5.11 19.55 6.84 20.82 8.83 21.48C9.33 21.57 9.52 21.27 9.52 21.01C9.52 20.77 9.51 19.98 9.51 19.15C7 19.61 6.35 18.53 6.14 17.97C6.03 17.68 5.54 16.79 5.12 16.56C4.77 16.37 4.27 15.91 5.11 15.9C5.89 15.88 6.46 16.62 6.64 16.92C7.54 18.43 8.98 18.01 9.56 17.75C9.64 17.1 9.91 16.66 10.2 16.41C7.97 16.16 5.64 15.3 5.64 11.47C5.64 10.38 6.03 9.48 6.67 8.78C6.57 8.53 6.22 7.51 6.77 6.13C6.77 6.13 7.61 5.87 9.52 7.16C10.33 6.93 11.18 6.82 12.02 6.82C12.87 6.82 13.72 6.93 14.52 7.16C16.43 5.86 17.27 6.13 17.27 6.13C17.82 7.51 17.47 8.53 17.37 8.78C18.01 9.48 18.39 10.37 18.39 11.47C18.39 15.31 16.06 16.16 13.83 16.41C14.2 16.72 14.51 17.32 14.51 18.26C14.51 19.6 14.5 20.67 14.5 21.01C14.5 21.27 14.68 21.58 15.18 21.48C17.17 20.81 18.89 19.54 20.12 17.83C21.34 16.13 21.99 14.09 22 12C22 6.47 17.52 2 12 2Z" fill="#607B96" fill-opacity="1.000000" fill-rule="nonzero"/>
	</g>
</svg>
