<svg width="24.000000" height="24.000000" viewBox="0 0 24 24" fill="none" xmlns="http://www.w3.org/2000/svg" xmlns:xlink="http://www.w3.org/1999/xlink">
	<desc>
			Created with Pixso.
	</desc>
	<defs>
		<clipPath id="clip64_1620">
			<rect id="personal-info-icon" rx="-0.500000" width="23.000000" height="23.000000" transform="translate(0.500000 0.500000)" fill="white" fill-opacity="0"/>
		</clipPath>
	</defs>
	<rect id="personal-info-icon" rx="-0.500000" width="23.000000" height="23.000000" transform="translate(0.500000 0.500000)" fill="#FFFFFF" fill-opacity="0"/>
	<g clip-path="url(#clip64_1620)">
		<path id="Vector" d="M5 20L19 20L19 22L5 22L5 20ZM12 18C9.87 18 7.84 17.15 6.34 15.65C4.84 14.15 4 12.12 4 10C4 7.87 4.84 5.84 6.34 4.34C7.84 2.84 9.87 2 12 2C14.12 2 16.15 2.84 17.65 4.34C19.15 5.84 20 7.87 20 10C20 12.12 19.15 14.15 17.65 15.65C16.15 17.15 14.12 18 12 18Z" fill="#607B96" fill-opacity="1.000000" fill-rule="nonzero"/>
	</g>
</svg>
