<svg width="24.000000" height="24.000000" viewBox="0 0 24 24" fill="none" xmlns="http://www.w3.org/2000/svg" xmlns:xlink="http://www.w3.org/1999/xlink">
	<desc>
			Created with Pixso.
	</desc>
	<defs>
		<clipPath id="clip3_230">
			<rect id="Property 1=Gatsby" rx="-0.500000" width="23.000000" height="23.000000" transform="translate(0.500000 0.500000)" fill="white" fill-opacity="0"/>
		</clipPath>
	</defs>
	<g opacity="0.400000">
		<rect id="Property 1=Gatsby" rx="-0.500000" width="23.000000" height="23.000000" transform="translate(0.500000 0.500000)" fill="#FFFFFF" fill-opacity="0"/>
		<g clip-path="url(#clip3_230)">
			<path id="Vector" d="M12 2C6.5 2 2 6.5 2 12C2 17.5 6.5 22 12 22C17.5 22 22 17.5 22 12C22 6.5 17.5 2 12 2ZM6.42 17.57C4.92 16.07 4.14 14.07 4.14 12.14L11.92 19.85C9.92 19.78 7.92 19.07 6.42 17.57ZM13.71 19.64L4.35 10.28C5.14 6.78 8.28 4.14 12 4.14C14.64 4.14 16.92 5.42 18.35 7.35L17.28 8.28C16.07 6.64 14.14 5.57 12 5.57C9.21 5.57 6.85 7.35 5.92 9.85L14.14 18.07C16.21 17.35 17.78 15.57 18.28 13.42L14.85 13.42L14.85 12L19.85 12C19.85 15.71 17.21 18.85 13.71 19.64Z" fill="#607B96" fill-opacity="1.000000" fill-rule="nonzero"/>
		</g>
	</g>
</svg>
