<svg width="24.000000" height="24.000000" viewBox="0 0 24 24" fill="none" xmlns="http://www.w3.org/2000/svg" xmlns:xlink="http://www.w3.org/1999/xlink">
	<desc>
			Created with Pixso.
	</desc>
	<defs>
		<clipPath id="clip3_195">
			<rect id="Technologies logos" rx="-0.500000" width="23.000000" height="23.000000" transform="translate(0.500000 0.500000)" fill="white" fill-opacity="0"/>
		</clipPath>
	</defs>
	<rect id="Technologies logos" rx="-0.500000" width="23.000000" height="23.000000" transform="translate(0.500000 0.500000)" fill="#FFFFFF" fill-opacity="0"/>
	<g clip-path="url(#clip3_195)">
		<path id="Vector" d="M12 13.5C11.6 13.5 11.22 13.34 10.93 13.06C10.65 12.77 10.5 12.39 10.5 12C10.5 11.6 10.65 11.22 10.93 10.93C11.22 10.65 11.6 10.5 12 10.5C12.39 10.5 12.77 10.65 13.06 10.93C13.34 11.22 13.5 11.6 13.5 12C13.5 12.39 13.34 12.77 13.06 13.06C12.77 13.34 12.39 13.5 12 13.5ZM11.47 16.49C11.64 16.7 11.82 16.9 12 17.1C12.17 16.9 12.35 16.7 12.52 16.49C12.17 16.5 11.82 16.5 11.47 16.49ZM9.47 16.36C8.7 16.28 7.94 16.16 7.19 16C7.11 16.35 7.06 16.69 7.02 17.01C6.83 18.59 7.09 19.56 7.5 19.79C7.9 20.02 8.86 19.77 10.14 18.81C10.4 18.62 10.67 18.4 10.93 18.16C10.41 17.59 9.93 16.99 9.47 16.36ZM16.8 16C16.09 16.16 15.32 16.28 14.52 16.36C14.06 16.99 13.58 17.59 13.06 18.16C13.32 18.4 13.59 18.62 13.85 18.81C15.13 19.77 16.09 20.02 16.5 19.79C16.9 19.56 17.16 18.59 16.97 17.01C16.93 16.67 16.88 16.33 16.8 16L16.8 16ZM18.25 15.61C18.83 18.25 18.53 20.35 17.25 21.09C15.96 21.83 13.99 21.04 12 19.22C10 21.04 8.03 21.83 6.75 21.09C5.46 20.35 5.16 18.25 5.74 15.61C3.16 14.79 1.5 13.48 1.5 12C1.5 10.52 3.16 9.2 5.74 8.38C5.16 5.74 5.46 3.64 6.75 2.9C8.03 2.16 10 2.95 12 4.77C13.99 2.95 15.96 2.16 17.25 2.9C18.53 3.64 18.83 5.74 18.25 8.38C20.83 9.2 22.5 10.52 22.5 12C22.5 13.48 20.83 14.79 18.25 15.61L18.25 15.61ZM10.93 5.83C10.68 5.6 10.41 5.38 10.14 5.17C8.86 4.22 7.9 3.97 7.5 4.2C7.09 4.43 6.83 5.39 7.02 6.98C7.06 7.3 7.11 7.64 7.19 7.99C7.94 7.83 8.7 7.71 9.47 7.63C9.95 6.97 10.44 6.37 10.93 5.83L10.93 5.83ZM14.52 7.63C15.32 7.71 16.09 7.83 16.8 7.99C16.88 7.64 16.93 7.3 16.97 6.98C17.16 5.39 16.9 4.43 16.5 4.2C16.09 3.97 15.13 4.22 13.85 5.17C13.58 5.38 13.31 5.6 13.06 5.83C13.55 6.37 14.04 6.97 14.52 7.63ZM12.52 7.5C12.35 7.29 12.17 7.09 12 6.89C11.82 7.09 11.64 7.29 11.47 7.5C11.82 7.49 12.17 7.49 12.52 7.5ZM8.37 14.7C8.18 14.4 8.01 14.09 7.84 13.79C7.74 14.04 7.66 14.3 7.58 14.55C7.83 14.6 8.1 14.65 8.37 14.7L8.37 14.7ZM10.3 14.93C11.43 15.02 12.56 15.02 13.69 14.93C14.33 14 14.9 13.01 15.39 12C14.9 10.98 14.33 9.99 13.69 9.06C12.56 8.97 11.43 8.97 10.3 9.06C9.66 9.99 9.09 10.98 8.6 12C9.09 13.01 9.66 14 10.3 14.93ZM16.15 10.21C16.25 9.95 16.33 9.69 16.41 9.44C16.15 9.39 15.89 9.34 15.62 9.29C15.81 9.59 15.98 9.9 16.15 10.21ZM6.12 9.83C5.79 9.94 5.46 10.06 5.16 10.19C3.7 10.82 3 11.53 3 12C3 12.46 3.69 13.17 5.16 13.8C5.46 13.93 5.79 14.05 6.12 14.16C6.35 13.46 6.62 12.73 6.95 12C6.63 11.29 6.36 10.57 6.12 9.83ZM7.58 9.44C7.66 9.69 7.74 9.95 7.84 10.2C8.01 9.9 8.18 9.59 8.37 9.29C8.1 9.34 7.83 9.39 7.58 9.44L7.58 9.44ZM17.87 14.16C18.2 14.05 18.53 13.93 18.83 13.8C20.29 13.17 21 12.46 21 12C21 11.53 20.29 10.82 18.83 10.19C18.51 10.06 18.19 9.94 17.87 9.83C17.64 10.53 17.37 11.26 17.04 12C17.37 12.73 17.64 13.46 17.87 14.16ZM16.41 14.55C16.33 14.3 16.25 14.04 16.15 13.79C15.98 14.09 15.81 14.4 15.62 14.7C15.89 14.65 16.16 14.6 16.41 14.55L16.41 14.55Z" fill="#607B96" fill-opacity="1.000000" fill-rule="nonzero"/>
	</g>
</svg>
