<svg width="24.000000" height="24.000000" viewBox="0 0 24 24" fill="none" xmlns="http://www.w3.org/2000/svg" xmlns:xlink="http://www.w3.org/1999/xlink">
	<desc>
			Created with Pixso.
	</desc>
	<defs>
		<clipPath id="clip64_1617">
			<rect id="hobbies-icon" rx="-0.500000" width="23.000000" height="23.000000" transform="translate(0.500000 0.500000)" fill="white" fill-opacity="0"/>
		</clipPath>
	</defs>
	<g opacity="0.400000">
		<rect id="hobbies-icon" rx="-0.500000" width="23.000000" height="23.000000" transform="translate(0.500000 0.500000)" fill="#FFFFFF" fill-opacity="0"/>
		<g clip-path="url(#clip64_1617)">
			<path id="Vector" d="M17 4C18.59 4 20.11 4.63 21.24 5.75C22.36 6.88 23 8.4 23 10L23 14C23 15.59 22.36 17.11 21.24 18.24C20.11 19.36 18.59 20 17 20L7 20C5.4 20 3.88 19.36 2.75 18.24C1.63 17.11 1 15.59 1 14L1 10C1 8.4 1.63 6.88 2.75 5.75C3.88 4.63 5.4 4 7 4L17 4ZM10 9L8 9L8 11L6 11L6 13L7.99 13L8 15L10 15L9.99 13L12 13L12 11L10 11L10 9ZM18 13L16 13L16 15L18 15L18 13ZM16 9L14 9L14 11L16 11L16 9Z" fill="#607B96" fill-opacity="1.000000" fill-rule="nonzero"/>
		</g>
	</g>
</svg>
