<svg width="24.000000" height="24.000000" viewBox="0 0 24 24" fill="none" xmlns="http://www.w3.org/2000/svg" xmlns:xlink="http://www.w3.org/1999/xlink">
	<desc>
			Created with Pixso.
	</desc>
	<defs>
		<clipPath id="clip64_1623">
			<rect id="professional-info-icon" rx="-0.500000" width="23.000000" height="23.000000" transform="translate(0.500000 0.500000)" fill="white" fill-opacity="0"/>
		</clipPath>
	</defs>
	<g opacity="0.400000">
		<rect id="professional-info-icon" rx="-0.500000" width="23.000000" height="23.000000" transform="translate(0.500000 0.500000)" fill="#FFFFFF" fill-opacity="0"/>
		<g clip-path="url(#clip64_1623)">
			<path id="Vector" d="M3 3L21 3C21.26 3 21.51 3.1 21.7 3.29C21.89 3.48 22 3.73 22 4L22 20C22 20.26 21.89 20.51 21.7 20.7C21.51 20.89 21.26 21 21 21L3 21C2.73 21 2.48 20.89 2.29 20.7C2.1 20.51 2 20.26 2 20L2 4C2 3.73 2.1 3.48 2.29 3.29C2.48 3.1 2.73 3 3 3ZM12 15L12 17L18 17L18 15L12 15ZM8.41 12L5.58 14.82L7 16.24L11.24 12L7 7.75L5.58 9.17L8.41 12Z" fill="#607B96" fill-opacity="1.000000" fill-rule="nonzero"/>
		</g>
	</g>
</svg>
