<svg width="24.000000" height="24.000000" viewBox="0 0 24 24" fill="none" xmlns="http://www.w3.org/2000/svg" xmlns:xlink="http://www.w3.org/1999/xlink">
	<desc>
			Created with Pixso.
	</desc>
	<defs>
		<clipPath id="clip3_627">
			<rect id="Frame" rx="-0.500000" width="23.000000" height="23.000000" transform="translate(0.500000 0.500000)" fill="white" fill-opacity="0"/>
		</clipPath>
	</defs>
	<rect id="Frame" rx="-0.500000" width="23.000000" height="23.000000" transform="translate(0.500000 0.500000)" fill="#607B96" fill-opacity="0"/>
	<g clip-path="url(#clip3_627)">
		<path id="Vector" d="M22.38 5.65C21.61 5.99 20.81 6.21 19.98 6.31C20.85 5.79 21.5 4.96 21.82 4C21 4.48 20.1 4.82 19.16 5.01C18.53 4.34 17.7 3.89 16.79 3.74C15.88 3.59 14.94 3.74 14.13 4.18C13.32 4.61 12.67 5.3 12.29 6.14C11.91 6.98 11.82 7.93 12.03 8.82C10.37 8.74 8.74 8.31 7.26 7.56C5.77 6.8 4.46 5.75 3.41 4.45C3.04 5.09 2.85 5.82 2.85 6.56C2.85 8.01 3.59 9.29 4.71 10.04C4.04 10.02 3.39 9.84 2.81 9.51L2.81 9.57C2.81 10.53 3.15 11.47 3.76 12.22C4.37 12.96 5.22 13.48 6.17 13.67C5.55 13.84 4.91 13.86 4.28 13.74C4.55 14.57 5.07 15.3 5.77 15.82C6.47 16.34 7.31 16.63 8.19 16.65C7.32 17.33 6.33 17.83 5.26 18.13C4.2 18.42 3.09 18.51 2 18.38C3.91 19.61 6.13 20.26 8.41 20.26C16.1 20.26 20.31 13.88 20.31 8.36C20.31 8.18 20.3 8 20.29 7.82C21.11 7.23 21.82 6.49 22.38 5.65L22.38 5.65Z" fill="#607B96" fill-opacity="1.000000" fill-rule="nonzero"/>
	</g>
</svg>
