<svg width="16.221924" height="14.599731" viewBox="0 0 16.2219 14.5997" fill="none" xmlns="http://www.w3.org/2000/svg" xmlns:xlink="http://www.w3.org/1999/xlink">
	<desc>
			Created with Pixso.
	</desc>
	<defs/>
	<path id="mail-icon" d="M0.81 0L15.41 0C15.62 0 15.83 0.08 15.98 0.23C16.13 0.38 16.22 0.59 16.22 0.81L16.22 13.78C16.22 14 16.13 14.21 15.98 14.36C15.83 14.51 15.62 14.59 15.41 14.59L0.81 14.59C0.59 14.59 0.38 14.51 0.23 14.36C0.08 14.21 0 14 0 13.78L0 0.81C0 0.59 0.08 0.38 0.23 0.23C0.38 0.08 0.59 0 0.81 0ZM8.15 7.04L2.95 2.62L1.9 3.86L8.17 9.17L14.31 3.85L13.25 2.63L8.16 7.04L8.15 7.04Z" fill="#607B96" fill-opacity="1.000000" fill-rule="nonzero"/>
</svg>
