<svg width="16.221924" height="14.599731" viewBox="0 0 16.2219 14.5997" fill="none" xmlns="http://www.w3.org/2000/svg" xmlns:xlink="http://www.w3.org/1999/xlink">
	<desc>
			Created with Pixso.
	</desc>
	<defs/>
	<path id="Vector" d="M0.81 0L15.41 0C15.62 0 15.83 0.08 15.98 0.23C16.13 0.38 16.22 0.59 16.22 0.81L16.22 13.78C16.22 14 16.13 14.21 15.98 14.36C15.83 14.51 15.62 14.59 15.41 14.59L0.81 14.59C0.59 14.59 0.38 14.51 0.23 14.36C0.08 14.21 0 14 0 13.78L0 0.81C0 0.59 0.08 0.38 0.23 0.23C0.38 0.08 0.59 0 0.81 0ZM4.05 10.13L4.05 6.89L5.67 8.51L7.29 6.89L7.29 10.13L8.92 10.13L8.92 4.46L7.29 4.46L5.67 6.08L4.05 4.46L2.43 4.46L2.43 10.13L4.05 10.13ZM12.97 7.7L12.97 4.46L11.35 4.46L11.35 7.7L9.73 7.7L12.16 10.13L14.59 7.7L12.97 7.7Z" fill="#81A1C1" fill-opacity="1.000000" fill-rule="nonzero"/>
</svg>
