<svg width="16.000000" height="16.000000" viewBox="0 0 16 16" fill="none" xmlns="http://www.w3.org/2000/svg" xmlns:xlink="http://www.w3.org/1999/xlink">
	<desc>
			Created with Pixso.
	</desc>
	<defs/>
	<path id="Vector" d="M6.22 2.66L6.22 4.44L1.77 4.44L1.77 14.22L11.55 14.22L11.55 9.77L13.33 9.77L13.33 15.11C13.33 15.34 13.23 15.57 13.07 15.73C12.9 15.9 12.68 16 12.44 16L0.88 16C0.65 16 0.42 15.9 0.26 15.73C0.09 15.57 0 15.34 0 15.11L0 3.55C0 3.31 0.09 3.09 0.26 2.92C0.42 2.76 0.65 2.66 0.88 2.66L6.22 2.66ZM16 0L16 7.11L14.22 7.11L14.22 3.03L7.29 9.96L6.03 8.7L12.96 1.77L8.88 1.77L8.88 0L16 0Z" fill="#607B96" fill-opacity="1.000000" fill-rule="nonzero"/>
</svg>
